# Created by funcLib on 14/08/2007 at 17:21:38
# Verts: 148
# TexCoords: 0
# Normals: 148
# Materials: 0
# Faces: 132
# Triangles: 292

# Verteces
v 0.095671 -0.510856 0.172165
v 0.230970 -0.510856 0.070690
v 0.230970 -0.510856 -0.072816
v 0.095671 -0.510856 -0.174290
v -0.095671 -0.510856 -0.174290
v -0.230970 -0.510856 -0.072816
v -0.230970 -0.510856 0.070690
v -0.095671 -0.510856 0.172165
v 0.095671 0.489144 0.140915
v 0.230970 0.489144 0.070690
v 0.230970 0.489144 -0.072816
v 0.095671 0.489144 -0.174290
v -0.095671 0.489144 -0.174290
v -0.230970 0.489144 -0.072816
v -0.230970 0.489144 0.070690
v -0.095671 0.489144 0.140915
v 0.047835 0.614144 0.085551
v 0.115485 0.614144 0.034814
v 0.115485 0.614144 -0.036939
v 0.047835 0.614144 -0.087677
v -0.047835 0.614144 -0.087677
v -0.115485 0.614144 -0.036939
v -0.115485 0.614144 0.034814
v -0.047835 0.614144 0.085551
v 0.011959 0.676644 0.020591
v 0.028871 0.676644 0.007906
v 0.028871 0.676644 -0.010032
v 0.011959 0.676644 -0.022716
v -0.011959 0.676644 -0.022716
v -0.028871 0.676644 -0.010032
v -0.028871 0.676644 0.007906
v -0.011959 0.676644 0.020591
v 0.095671 -0.260856 0.172165
v 0.095671 0.239144 0.172165
v -0.095671 -0.260856 0.172165
v -0.095671 0.239144 0.172165
v -0.063781 -0.260856 0.172165
v 0.063781 -0.260856 0.172165
v -0.063781 0.239144 0.172165
v 0.063781 0.239144 0.172165
v 0.079726 0.145394 0.172165
v 0.079726 -0.167106 0.172165
v -0.079726 -0.167106 0.172165
v -0.079726 0.145394 0.172165
v -0.039863 -0.088981 0.265915
v 0.039863 -0.088981 0.265915
v 0.039863 0.067269 0.265915
v -0.039863 0.067269 0.265915
v 0.051822 0.159192 0.230013
v -0.051822 0.159192 0.230013
v 0.230970 -0.510856 0.022855
v 0.230970 -0.510856 -0.024981
v -0.230970 -0.510856 -0.024981
v -0.230970 -0.510856 0.022855
v 0.230970 0.489144 0.004917
v 0.230970 0.489144 -0.007042
v -0.230970 0.489144 -0.007042
v -0.230970 0.489144 0.004917
v -0.730970 -0.010856 -0.004053
v -0.730970 -0.510856 -0.013022
v -0.730970 -0.510856 0.010896
v -0.730970 -0.010856 0.001927
v 0.730970 -0.510856 -0.013022
v 0.730970 -0.010856 -0.004053
v 0.730970 -0.010856 0.001927
v 0.730970 -0.510856 0.010896
v -0.710970 -0.510856 0.011374
v 0.710970 -0.510856 0.011374
v -0.720970 -0.000856 0.001987
v 0.720970 -0.000856 0.001987
v -0.720208 -0.507365 0.133904
v -0.725208 -0.252364 0.129211
v -0.730208 -0.257364 0.129181
v -0.730208 -0.507365 0.133665
v 0.725208 -0.252364 0.129211
v 0.720208 -0.507365 0.133904
v 0.730208 -0.507365 0.133665
v 0.730208 -0.257364 0.129181
v -0.000000 -0.510856 0.172165
v 0.000000 -0.510856 -0.174290
v 0.034851 -0.760856 0.128858
v 0.034851 -0.760856 -0.130983
v 0.106604 -0.760856 -0.130983
v 0.208078 -0.760856 -0.054878
v 0.208078 -0.760856 0.052752
v 0.106604 -0.760856 0.128858
v -0.034851 -0.760856 -0.130983
v -0.034851 -0.760856 0.128858
v -0.106604 -0.760856 0.128858
v -0.208078 -0.760856 0.052752
v -0.208078 -0.760856 -0.054878
v -0.106604 -0.760856 -0.130983
v 0.052020 -0.760856 0.111689
v 0.052020 -0.760856 -0.113814
v 0.100881 -0.760856 -0.113814
v 0.190909 -0.760856 -0.046293
v 0.190909 -0.760856 0.044168
v 0.100881 -0.760856 0.111689
v -0.052020 -0.760856 -0.113814
v -0.052020 -0.760856 0.111689
v -0.100881 -0.760856 0.111689
v -0.190909 -0.760856 0.044168
v -0.190909 -0.760856 -0.046293
v -0.100881 -0.760856 -0.113814
v 0.052020 -0.510856 0.111689
v 0.052020 -0.510856 -0.113814
v 0.100881 -0.510856 -0.113814
v 0.190909 -0.510856 -0.046293
v 0.190909 -0.510856 0.044168
v 0.100881 -0.510856 0.111689
v -0.052020 -0.510856 -0.113814
v -0.052020 -0.510856 0.111689
v -0.100881 -0.510856 0.111689
v -0.190909 -0.510856 0.044168
v -0.190909 -0.510856 -0.046293
v -0.100881 -0.510856 -0.113814
v 0.085741 -0.521070 0.170395
v 0.011888 -0.521070 0.170395
v 0.043891 -0.750641 0.130627
v 0.095781 -0.750641 0.130627
v -0.011888 -0.521070 0.170395
v -0.085741 -0.521070 0.170395
v -0.095781 -0.750641 0.130627
v -0.043891 -0.750641 0.130627
v 0.190929 -0.712331 0.401814
v 0.172466 -0.712331 0.401814
v 0.180467 -0.769723 0.391872
v 0.193439 -0.769723 0.391872
v -0.172466 -0.712331 0.401814
v -0.190929 -0.712331 0.401814
v -0.193439 -0.769723 0.391872
v -0.180467 -0.769723 0.391872
v 0.207758 0.500540 -0.079059
v 0.102937 0.500540 -0.157674
v 0.063823 0.602749 -0.086852
v 0.113329 0.602749 -0.049723
v -0.102937 0.500540 -0.157674
v -0.207758 0.500540 -0.079059
v -0.113329 0.602749 -0.049723
v -0.063823 0.602749 -0.086852
v 0.207758 0.438040 -0.079059
v 0.102937 0.438040 -0.157674
v 0.063823 0.540249 -0.086852
v 0.113329 0.540249 -0.049723
v -0.102937 0.438040 -0.157674
v -0.207758 0.438040 -0.079059
v -0.113329 0.540249 -0.049723
v -0.063823 0.540249 -0.086852

# TexCoords

# Normals
vn 0.248807 -0.092760 0.964101
vn 0.891175 -0.053341 0.450514
vn 0.893103 -0.056748 -0.446260
vn 0.316014 -0.074582 -0.945818
vn -0.316014 -0.074582 -0.945818
vn -0.893103 -0.056748 -0.446260
vn -0.891175 -0.053341 0.450514
vn -0.248807 -0.092760 0.964101
vn 0.270844 0.289781 0.917971
vn 0.813147 0.365323 0.453134
vn 0.759274 0.442868 -0.476834
vn 0.339440 0.396379 -0.853032
vn -0.339440 0.396379 -0.853032
vn -0.759274 0.442868 -0.476834
vn -0.813147 0.365323 0.453134
vn -0.270844 0.289781 0.917971
vn 0.213557 0.634429 0.742895
vn 0.573068 0.749185 0.332137
vn 0.561209 0.737322 -0.376033
vn 0.275488 0.679033 -0.680456
vn -0.275488 0.679033 -0.680456
vn -0.561209 0.737322 -0.376033
vn -0.573068 0.749185 0.332137
vn -0.213557 0.634429 0.742895
vn 0.139342 0.889907 0.434338
vn 0.347898 0.919070 0.185143
vn 0.347898 0.919070 -0.185143
vn 0.139342 0.889907 -0.434338
vn -0.139342 0.889907 -0.434338
vn -0.347898 0.919070 -0.185143
vn -0.347898 0.919070 0.185143
vn -0.139342 0.889907 0.434338
vn 0.203695 0.004414 0.979024
vn 0.204002 0.047684 0.977808
vn -0.203695 0.004414 0.979024
vn -0.204002 0.047684 0.977808
vn -0.243792 -0.177122 0.953516
vn 0.243792 -0.177122 0.953516
vn -0.262954 0.251352 0.931492
vn 0.262954 0.251352 0.931492
vn 0.775037 0.057367 0.629306
vn 0.686758 -0.056444 0.724691
vn -0.686758 -0.056444 0.724691
vn -0.775037 0.057367 0.629306
vn -0.532986 -0.187123 0.825173
vn 0.532986 -0.187123 0.825173
vn 0.548915 0.123965 0.826634
vn -0.548915 0.123965 0.826634
vn 0.540763 0.344548 0.767373
vn -0.540763 0.344548 0.767373
vn 0.809170 -0.429979 0.400452
vn 0.809170 -0.429979 -0.400452
vn -0.809170 -0.429979 -0.400452
vn -0.809170 -0.429979 0.400452
vn 0.819654 0.466633 0.332298
vn 0.819654 0.466633 -0.332298
vn -0.819654 0.466633 -0.332298
vn -0.819654 0.466633 0.332298
vn -0.814093 0.340984 -0.470088
vn -0.589979 -0.565872 -0.575946
vn -0.707262 -0.706846 0.012243
vn -0.914225 0.328153 0.237713
vn 0.589979 -0.565872 -0.575946
vn 0.814093 0.340984 -0.470088
vn 0.914225 0.328153 0.237713
vn 0.707262 -0.706846 0.012243
vn 0.396795 -0.800088 0.449903
vn -0.396795 -0.800088 0.449903
vn -0.069537 0.524022 0.848862
vn 0.069537 0.524022 0.848862
vn 0.553700 -0.547058 0.627809
vn 0.274784 0.225635 0.934656
vn -0.612458 0.183781 0.768843
vn -0.583544 -0.559045 0.589021
vn -0.274784 0.225635 0.934656
vn -0.553700 -0.547058 0.627809
vn 0.583544 -0.559045 0.589021
vn 0.612458 0.183781 0.768843
vn 0.000000 -0.190500 0.981687
vn 0.000000 -0.203518 -0.979071
vn -0.298461 -0.747171 0.593849
vn -0.367021 -0.855555 -0.365132
vn 0.201753 -0.772270 -0.602408
vn 0.562212 -0.777884 -0.280738
vn 0.562212 -0.777884 0.280738
vn 0.159232 -0.655090 0.738582
vn 0.367021 -0.855555 -0.365132
vn 0.298461 -0.747171 0.593849
vn -0.159232 -0.655090 0.738582
vn -0.562212 -0.777884 0.280738
vn -0.562212 -0.777884 -0.280738
vn -0.201753 -0.772270 -0.602408
vn 0.408248 -0.816497 -0.408248
vn 0.408248 -0.816497 0.408248
vn -0.217643 -0.725476 0.652929
vn -0.596285 -0.745356 0.298142
vn -0.596285 -0.745356 -0.298142
vn -0.217643 -0.725476 -0.652929
vn -0.408248 -0.816497 0.408248
vn -0.408248 -0.816497 -0.408248
vn 0.217643 -0.725476 -0.652929
vn 0.596285 -0.745356 -0.298142
vn 0.596285 -0.745356 0.298142
vn 0.217643 -0.725476 0.652929
vn 0.577350 -0.577350 -0.577350
vn 0.577350 -0.577350 0.577350
vn -0.279751 -0.466252 0.839254
vn -0.780720 -0.487950 0.390360
vn -0.780720 -0.487950 -0.390360
vn -0.279751 -0.466252 -0.839254
vn -0.577350 -0.577350 0.577350
vn -0.577350 -0.577350 -0.577350
vn 0.279751 -0.466252 -0.839254
vn 0.780720 -0.487950 -0.390360
vn 0.780720 -0.487950 0.390360
vn 0.279751 -0.466252 0.839254
vn 0.372644 0.211194 0.903623
vn -0.274841 0.072564 0.958747
vn -0.298083 -0.524042 0.797826
vn 0.425247 -0.563717 0.708088
vn 0.274841 0.072564 0.958747
vn -0.372644 0.211194 0.903623
vn -0.425247 -0.563717 0.708088
vn 0.298083 -0.524042 0.797826
vn 0.539202 0.404090 0.738899
vn -0.383827 0.176260 0.906427
vn -0.413659 -0.646484 0.641050
vn 0.610946 -0.698278 0.373032
vn 0.383827 0.176260 0.906427
vn -0.539202 0.404090 0.738899
vn -0.610946 -0.698278 0.373032
vn 0.413659 -0.646484 0.641050
vn 0.025419 0.657239 -0.753254
vn 0.702949 0.711102 0.013980
vn 0.770580 0.392943 -0.501799
vn 0.357741 0.353782 -0.864210
vn -0.702949 0.711102 0.013980
vn -0.025419 0.657239 -0.753254
vn -0.357741 0.353782 -0.864210
vn -0.770580 0.392943 -0.501799
vn -0.391363 0.568829 -0.723373
vn 0.639386 0.527676 0.559235
vn 0.865044 0.274031 -0.420245
vn 0.300323 0.238917 -0.923431
vn -0.639386 0.527676 0.559235
vn 0.391363 0.568829 -0.723373
vn -0.300323 0.238917 -0.923431
vn -0.865044 0.274031 -0.420245

# Faces
f 1//1 33//33 38//38 37//37 35//35 8//8 79//79
f 1//1 86//86 85//84 2//2
f 1//1 117//117 120//120 86//86
f 2//2 10//10 9//9 34//34 33//33 1//1
f 2//2 85//84 84//84 3//3 52//51 51//51
f 3//3 84//84 83//83 4//4
f 4//4 12//12 11//11 3//3
f 4//4 83//83 82//82 80//80
f 5//5 92//92 91//90 6//6
f 6//6 14//14 13//13 5//5
f 6//6 91//90 90//90 7//7 54//53 53//53
f 7//7 90//90 89//89 8//8
f 8//8 35//35 36//36 16//16 15//15 7//7
f 8//8 122//122 121//121 79//79
f 9//9 17//17 24//24 16//16
f 10//10 18//18 17//17 9//9
f 11//11 56//55 52//51 3//3
f 11//11 133//133 136//136 19//19
f 12//12 134//134 133//133 11//11
f 13//13 21//21 20//20 12//12
f 13//13 137//137 140//140 21//21
f 14//14 138//138 137//137 13//13
f 15//15 58//57 54//53 7//7
f 16//16 24//24 23//23 15//15
f 16//16 36//36 39//39 40//40 34//34 9//9
f 17//17 25//25 32//29 24//24
f 18//18 26//26 25//25 17//17
f 19//19 27//26 26//26 18//18
f 19//19 136//136 135//135 20//20
f 20//20 28//25 27//26 19//19
f 20//20 135//135 134//134 12//12
f 21//21 29//29 28//25 20//20
f 21//21 140//140 139//139 22//22
f 22//22 30//30 29//29 21//21
f 22//22 139//139 138//138 14//14
f 23//23 31//30 30//30 22//22
f 24//24 32//29 31//30 23//23
f 26//26 27//26 28//25 29//29 30//30 31//30 32//29 25//25
f 34//34 40//40 41//41 42//42 38//38 33//33
f 35//35 37//37 43//43 44//44 39//39 36//36
f 37//37 45//45 43//43
f 38//38 46//46 45//45 37//37
f 39//39 50//50 49//49 40//40
f 40//40 49//49 41//41
f 41//41 47//47 46//46 42//42
f 41//41 49//49 47//47
f 42//42 46//46 38//38
f 43//43 45//45 48//48 44//44
f 44//44 50//50 39//39
f 46//46 47//47 48//48 45//45
f 47//47 49//49 50//50 48//48
f 48//48 50//50 44//44
f 51//51 55//55 10//10 2//2
f 51//51 68//68 70//70 55//55
f 52//51 63//63 66//66 68//68 51//51
f 53//53 57//57 14//14 6//6
f 53//53 60//60 59//59 57//57
f 54//53 67//67 61//61 60//60 53//53
f 55//55 56//55 11//11 19//19 18//18 10//10
f 55//55 70//70 65//65 64//64 56//55
f 56//55 64//64 63//63 52//51
f 57//57 58//57 15//15 23//23 22//22 14//14
f 57//57 59//59 62//62 69//69 58//57
f 58//57 69//69 67//67 54//53
f 60//60 61//61 62//62 59//59
f 61//61 74//74 73//73 62//62
f 62//62 73//73 72//72 69//69
f 64//64 65//65 66//66 63//63
f 65//65 78//78 77//77 66//66
f 66//66 77//77 76//76 68//68
f 67//67 71//71 74//74 61//61
f 68//68 76//76 75//75 70//70
f 69//69 72//72 71//71 67//67
f 70//70 75//75 78//78 65//65
f 72//72 73//73 74//74 71//71
f 76//76 77//77 78//78 75//75
f 79//79 88//88 87//87 80//80
f 79//79 118//118 117//117 1//1
f 79//79 121//121 124//124 88//88
f 80//80 5//5 13//13 12//12 4//4
f 80//80 82//82 81//81 79//79
f 80//80 87//87 92//92 5//5
f 81//81 93//93 98//95 86//86
f 81//81 119//119 118//118 79//79
f 82//82 94//93 93//93 81//81
f 83//83 95//95 94//93 82//82
f 84//84 96//96 95//95 83//83
f 85//84 97//96 96//96 84//84
f 86//86 98//95 97//96 85//84
f 86//86 120//120 119//119 81//81
f 87//87 99//99 104//101 92//92
f 88//88 100//99 99//99 87//87
f 88//88 124//124 123//123 89//89
f 89//89 101//101 100//99 88//88
f 89//89 123//123 122//122 8//8
f 90//90 102//102 101//101 89//89
f 91//90 103//102 102//102 90//90
f 92//92 104//101 103//102 91//90
f 93//93 105//105 110//107 98//95
f 94//93 106//105 105//105 93//93
f 95//95 107//107 106//105 94//93
f 96//96 108//108 107//107 95//95
f 97//96 109//108 108//108 96//96
f 98//95 110//107 109//108 97//96
f 99//99 111//111 116//113 104//101
f 100//99 112//111 111//111 99//99
f 101//101 113//113 112//111 100//99
f 102//102 114//114 113//113 101//101
f 103//102 115//114 114//114 102//102
f 104//101 116//113 115//114 103//102
f 106//105 107//107 108//108 109//108 110//107 105//105
f 112//111 113//113 114//114 115//114 116//113 111//111
f 117//117 125//125 128//128 120//120
f 118//118 126//126 125//125 117//117
f 119//119 127//127 126//126 118//118
f 120//120 128//128 127//127 119//119
f 121//121 129//129 132//132 124//124
f 122//122 130//130 129//129 121//121
f 123//123 131//131 130//130 122//122
f 124//124 132//132 131//131 123//123
f 126//126 127//127 128//128 125//125
f 130//130 131//131 132//132 129//129
f 133//133 141//141 144//144 136//136
f 134//134 142//142 141//141 133//133
f 135//135 143//143 142//142 134//134
f 136//136 144//144 143//143 135//135
f 137//137 145//145 148//148 140//140
f 138//138 146//146 145//145 137//137
f 139//139 147//147 146//146 138//138
f 140//140 148//148 147//147 139//139
f 142//142 143//143 144//144 141//141
f 146//146 147//147 148//148 145//145

# End of OBJ
